{"title":"CCGC S07E06 Will Ferrell 720p WEBRip AAC2 0 x264-monkee","uid":13426237,"size":340731047,"categoryP":"video","categoryS":"hd___tv_shows","magnet":"?xt=urn:btih:d159f16c56d894483af96707e0c3e2e94abd04bc&amp;dn=CCGC+S07E06+Will+Ferrell+720p+WEBRip+AAC2+0+x264-monkee&amp;tr=udp%3A%2F%2Ftracker.leechers-paradise.org%3A6969&amp;tr=udp%3A%2F%2Fzer0day.ch%3A1337&amp;tr=udp%3A%2F%2Fopen.demonii.com%3A1337&amp;tr=udp%3A%2F%2Ftracker.coppersurfer.tk%3A6969&amp;tr=udp%3A%2F%2Fexodus.desync.com%3A6969","seeders":1,"leechers":0,"uploader":"Anon_up","files":1,"time":1454594207,"description":"[center]If you like my work\r\n[color=orange]Donate Bitcoin:[/color] [color=green]1PWLan3jUdKdofaXUuRHMEM6m17E9v2fP6[/color]\r\n\r\n[img]http://i.imgur.com/p94fYT2.png[/img]\r\n\r\nScreenShots\r\n[img]http://i.imgur.com/dX32ZMP.jpg[/img]\r\n\r\nMediaInfo\r\n[spoiler]\r\nGeneral\r\nUnique ID : 176859671459858610099725596449679056536 (0x850DEF08660D1248B1BEBF43F0539E98)\r\nComplete name : Comedians.In.Cars.Getting.Coffee.S07E06.Will.Ferrell.720p.CCGC.WEBRip.AAC2.0.x264-monkee.mkv\r\nFormat : Matroska\r\nFormat version : Version 4 / Version 2\r\nFile size : 325 MiB\r\nDuration : 18mn 15s\r\nOverall bit rate : 2 489 Kbps\r\nEncoded date : UTC 2016-02-04 05:18:12\r\nWriting application : mkvmerge v7.9.0 ('Birds') 32bit\r\nWriting library : libebml v1.3.1 + libmatroska v1.4.2\r\n\r\nVideo\r\nID : 1\r\nFormat : AVC\r\nFormat/Info : Advanced Video Codec\r\nFormat profile :   \r\nFormat settings, CABAC : Yes\r\nFormat settings, ReFrames : 2 frames\r\nCodec ID : V_MPEG4/ISO/AVC\r\nDuration : 18mn 15s\r\nBit rate : 2 372 Kbps\r\nWidth : 1 280 pixels\r\nHeight : 720 pixels\r\nDisplay aspect ratio : 16:9\r\nFrame rate mode : Constant\r\nFrame rate : 29.970 (29970/1000) fps\r\nOriginal frame rate : 30.000 fps\r\nColor space : YUV\r\nChroma subsampling : 4:2:0\r\nBit depth : 8 bits\r\nScan type : Progressive\r\nBits/(Pixel*Frame) : 0.086\r\nStream size : 308 MiB (95%)\r\nWriting library : x264 core 115 r1995M 5a37283\r\nEncoding settings : cabac=1 / ref=2 / deblock=1:0:0 / analyse=0x1:0x111 / me=hex / subme=2 / psy=1 / psy_rd=1.00:0.00 / mixed_ref=0 / me_range=16 / chroma_me=1 / trellis=0 / 8x8dct=0 / cqm=0 / deadzone=21,11 / fast_pskip=1 / chroma_qp_offset=0 / threads=1 / sliced_threads=0 / nr=250 / decimate=1 / interlaced=0 / bluray_compat=0 / constrained_intra=0 / bframes=0 / weightp=1 / keyint=250 / keyint_min=25 / scenecut=40 / intra_refresh=0 / rc_lookahead=10 / rc=2pass / mbtree=1 / bitrate=2372 / ratetol=1.0 / qcomp=0.60 / qpmin=5 / qpmax=69 / qpstep=4 / cplxblur=20.0 / qblur=0.5 / ip_ratio=1.40 / aq=1:1.00\r\nDefault : Yes\r\nForced : No\r\n\r\nAudio\r\nID : 2\r\nFormat : AAC\r\nFormat/Info : Advanced Audio Codec\r\nFormat profile : HE-AAC / LC\r\nCodec ID : A_AAC\r\nDuration : 18mn 15s\r\nBit rate : 127 Kbps\r\nChannel(s) : 2 channels\r\nChannel positions : Front: L R\r\nSampling rate : 48.0 KHz / 24.0 KHz\r\nFrame rate : 23.438 fps (1024 spf)\r\nCompression mode : Lossy\r\nStream size : 16.6 MiB (5%)\r\nDefault : Yes\r\nForced : No\r\n\r\n\r\n\r\n[/spoiler]\r\n\r\n\r\n[/center]","torrent":{"xt":"urn:btih:d159f16c56d894483af96707e0c3e2e94abd04bc","amp;dn":"CCGC+S07E06+Will+Ferrell+720p+WEBRip+AAC2+0+x264-monkee","amp;tr":["udp%3A%2F%2Ftracker.leechers-paradise.org%3A6969","udp%3A%2F%2Fzer0day.ch%3A1337","udp%3A%2F%2Fopen.demonii.com%3A1337","udp%3A%2F%2Ftracker.coppersurfer.tk%3A6969","udp%3A%2F%2Fexodus.desync.com%3A6969"],"infoHash":"d159f16c56d894483af96707e0c3e2e94abd04bc","infoHashBuffer":{"type":"Buffer","data":[209,89,241,108,86,216,148,72,58,249,103,7,224,195,226,233,74,189,4,188]},"announce":[],"urlList":[]}}